<svg width="250" height="107" viewBox="0 0 250 107" fill="none" xmlns="http://www.w3.org/2000/svg">
<path d="M75.6726 42.5409V31.5118C75.6726 17.6466 64.3218 6.30237 50.4484 6.30237C36.5751 6.30237 25.2242 17.6466 25.2242 31.5118V42.5409C19.2335 48.8433 15.7651 57.0361 15.7651 66.1748C15.7651 77.2036 20.81 87.2874 29.6385 93.9051C30.2691 94.22 30.8997 94.5354 31.5303 94.5354H69.3666C69.9972 94.5354 70.6278 94.22 71.2584 93.9051C80.0869 87.2874 85.1317 77.2036 85.1317 66.1748C85.1317 57.0361 81.6631 48.5282 75.6726 42.5409ZM31.5303 37.1839V31.5118C31.5303 21.1129 40.0434 12.6047 50.4484 12.6047C60.8531 12.6047 69.3666 21.1129 69.3666 31.5118V37.1839C64.0062 33.7176 57.3851 31.5118 50.4484 31.5118C43.5118 31.5118 36.8904 33.7176 31.5303 37.1839ZM69.3666 63.339C69.051 63.339 68.736 63.339 68.421 63.339C67.1598 63.339 65.8985 62.3933 65.2679 61.1329C64.3218 57.6663 61.7993 54.8305 58.9619 52.9398C57.3851 51.9945 57.0695 50.1037 58.0157 48.5282C58.9613 46.9526 60.8531 46.6374 62.4299 47.5828C66.5286 50.4189 69.6822 54.5154 71.2584 59.2422C71.889 61.1329 70.9428 62.7087 69.3666 63.339Z" fill="#F07900"/>
<path d="M103.587 14.5654H122.197V20.0331H109.731V27.7864H121.211V33.254H109.731V45.9372H103.587V14.5654ZM125.149 34.733C125.149 30.9385 126.075 28.0254 127.929 25.9937C129.783 23.9321 132.383 22.9013 135.732 22.9013C137.525 22.9013 139.08 23.1852 140.395 23.7529C141.711 24.3205 142.802 25.1272 143.669 26.173C144.536 27.1888 145.178 28.4288 145.597 29.8928C146.045 31.3568 146.27 32.9702 146.27 34.733C146.27 38.5274 145.343 41.4555 143.489 43.5171C141.666 45.5488 139.08 46.5646 135.732 46.5646C133.938 46.5646 132.383 46.2807 131.068 45.7131C129.752 45.1454 128.646 44.3536 127.749 43.3378C126.882 42.292 126.225 41.0372 125.776 39.5732C125.358 38.1092 125.149 36.4958 125.149 34.733ZM131.158 34.733C131.158 35.7189 131.247 36.6302 131.427 37.4668C131.606 38.3033 131.875 39.0354 132.234 39.6628C132.593 40.2902 133.056 40.7832 133.624 41.1418C134.222 41.4704 134.924 41.6347 135.732 41.6347C137.256 41.6347 138.392 41.082 139.14 39.9765C139.887 38.8711 140.261 37.1232 140.261 34.733C140.261 32.6714 139.917 31.0132 139.229 29.7583C138.541 28.4736 137.376 27.8312 135.732 27.8312C134.297 27.8312 133.175 28.369 132.368 29.4446C131.561 30.5202 131.158 32.283 131.158 34.733ZM166.185 44.5478C165.288 45.2051 164.197 45.6981 162.911 46.0268C161.656 46.3853 160.355 46.5646 159.01 46.5646C157.216 46.5646 155.692 46.2807 154.436 45.7131C153.21 45.1454 152.209 44.3536 151.432 43.3378C150.654 42.292 150.086 41.0372 149.728 39.5732C149.399 38.1092 149.234 36.4958 149.234 34.733C149.234 30.9385 150.086 28.0254 151.79 25.9937C153.494 23.9321 155.975 22.9013 159.234 22.9013C160.878 22.9013 162.194 23.0358 163.181 23.3047C164.197 23.5736 165.109 23.9172 165.916 24.3355L164.526 29.0861C163.838 28.7574 163.15 28.5034 162.463 28.3242C161.805 28.1449 161.043 28.0553 160.176 28.0553C158.562 28.0553 157.336 28.5931 156.499 29.6687C155.661 30.7144 155.243 32.4025 155.243 34.733C155.243 35.6891 155.348 36.5705 155.557 37.3772C155.766 38.1839 156.08 38.886 156.499 39.4835C156.917 40.0811 157.455 40.5591 158.113 40.9177C158.8 41.2464 159.593 41.4107 160.49 41.4107C161.476 41.4107 162.313 41.2912 163.001 41.0521C163.688 40.7832 164.302 40.4695 164.84 40.111L166.185 44.5478ZM175.316 23.5288V36.2567C175.316 38.0793 175.525 39.3939 175.943 40.2006C176.392 41.0073 177.244 41.4107 178.499 41.4107C179.605 41.4107 180.517 41.082 181.235 40.4247C181.982 39.7674 182.535 38.9607 182.894 38.0046V23.5288H188.724V39.125C188.724 40.35 188.784 41.5601 188.903 42.7552C189.022 43.9204 189.202 44.981 189.441 45.9372H185.047L184.015 42.6207H183.836C183.148 43.7561 182.192 44.6972 180.966 45.4442C179.74 46.1911 178.29 46.5646 176.616 46.5646C175.48 46.5646 174.464 46.4152 173.567 46.1164C172.67 45.8177 171.923 45.3247 171.325 44.6375C170.726 43.9503 170.263 43.0241 169.934 41.8588C169.636 40.6936 169.486 39.2296 169.486 37.4668V23.5288H175.316ZM203.122 39.7524C203.122 39.1549 202.868 38.6768 202.36 38.3183C201.851 37.9598 201.224 37.6311 200.476 37.3323C199.729 37.0336 198.907 36.7348 198.01 36.436C197.113 36.1073 196.291 35.6741 195.544 35.1363C194.797 34.5687 194.169 33.8665 193.66 33.0299C193.152 32.1635 192.898 31.058 192.898 29.7135C192.898 27.5025 193.555 25.8144 194.871 24.6492C196.187 23.484 198.085 22.9013 200.566 22.9013C202.27 22.9013 203.81 23.0806 205.185 23.4391C206.56 23.7977 207.636 24.201 208.414 24.6492L207.113 28.862C206.425 28.5931 205.559 28.3092 204.512 28.0105C203.466 27.7117 202.405 27.5623 201.328 27.5623C199.595 27.5623 198.728 28.2345 198.728 29.579C198.728 30.1168 198.982 30.5501 199.49 30.8787C199.998 31.2074 200.626 31.5211 201.373 31.8199C202.121 32.0888 202.943 32.3875 203.84 32.7162C204.737 33.0449 205.559 33.4781 206.306 34.0159C207.053 34.5238 207.681 35.1961 208.189 36.0327C208.698 36.8692 208.952 37.9448 208.952 39.2595C208.952 41.5302 208.219 43.3228 206.754 44.6375C205.32 45.9222 203.152 46.5646 200.252 46.5646C198.668 46.5646 197.173 46.3555 195.768 45.9372C194.393 45.5488 193.272 45.0856 192.405 44.5478L194.019 40.2006C194.707 40.589 195.618 40.9775 196.754 41.3658C197.891 41.7244 199.057 41.9037 200.252 41.9037C201.119 41.9037 201.807 41.7393 202.315 41.4107C202.853 41.082 203.122 40.5293 203.122 39.7524Z" fill="#F07900"/>
<path d="M125.874 68.7713H116.726V94.6754H110.583V68.7713H101.39V63.3037H125.874V68.7713ZM136.587 77.7347C135.66 77.4058 134.823 77.2417 134.076 77.2417C133.03 77.2417 132.147 77.5257 131.43 78.0932C130.743 78.631 130.279 79.3329 130.04 80.1996V94.6754H124.21V72.267H128.739L129.412 75.2249H129.591C130.1 74.1196 130.788 73.2681 131.654 72.6704C132.521 72.0726 133.538 71.774 134.703 71.774C135.481 71.774 136.363 71.9382 137.349 72.267L136.587 77.7347ZM139.797 73.5667C140.993 73.0289 142.413 72.6104 144.057 72.3118C145.701 71.983 147.42 71.8188 149.214 71.8188C150.768 71.8188 152.069 72.0132 153.115 72.4015C154.162 72.76 154.984 73.2827 155.582 73.97C156.21 74.6574 156.643 75.4787 156.882 76.435C157.151 77.3912 157.286 78.4668 157.286 79.6618C157.286 80.9766 157.241 82.306 157.151 83.6505C157.062 84.9653 157.002 86.265 156.972 87.5495C156.972 88.8341 157.017 90.089 157.107 91.3141C157.196 92.5091 157.42 93.6446 157.779 94.7202H153.026L152.084 91.6279H151.86C151.262 92.5539 150.425 93.3606 149.349 94.048C148.302 94.7051 146.942 95.0339 145.268 95.0339C144.221 95.0339 143.28 94.8844 142.443 94.5858C141.606 94.2569 140.888 93.8088 140.29 93.2413C139.692 92.6435 139.229 91.9567 138.9 91.1797C138.571 90.373 138.407 89.4767 138.407 88.4907C138.407 87.1165 138.706 85.9658 139.304 85.0398C139.932 84.0835 140.813 83.3216 141.95 82.7541C143.115 82.1564 144.49 81.753 146.075 81.5441C147.689 81.3049 149.483 81.2304 151.456 81.32C151.665 79.6467 151.546 78.4517 151.098 77.7347C150.649 76.9879 149.647 76.6142 148.093 76.6142C146.927 76.6142 145.687 76.7336 144.371 76.9728C143.086 77.212 142.024 77.5257 141.187 77.9139L139.797 73.5667ZM147.196 90.2385C148.362 90.2385 149.289 89.9848 149.976 89.4767C150.664 88.9389 151.172 88.3714 151.501 87.7736V84.8605C150.575 84.7709 149.678 84.7558 148.811 84.8157C147.974 84.8756 147.226 85.0101 146.568 85.2191C145.911 85.428 145.387 85.7272 144.999 86.1154C144.61 86.5036 144.416 86.9966 144.416 87.5943C144.416 88.4307 144.655 89.0884 145.133 89.5663C145.642 90.0145 146.329 90.2385 147.196 90.2385ZM162.672 72.267H168.501V94.6754H162.672V72.267ZM161.82 65.9478C161.82 65.0812 162.133 64.3496 162.761 63.7518C163.419 63.1244 164.316 62.8107 165.452 62.8107C166.587 62.8107 167.499 63.1244 168.187 63.7518C168.905 64.3496 169.263 65.0812 169.263 65.9478C169.263 66.8145 168.905 67.5461 168.187 68.1439C167.499 68.7114 166.587 68.9954 165.452 68.9954C164.316 68.9954 163.419 68.7114 162.761 68.1439C162.133 67.5461 161.82 66.8145 161.82 65.9478ZM187.943 94.6754V81.9474C187.943 80.1251 187.674 78.8103 187.136 78.0036C186.627 77.1969 185.746 76.7935 184.49 76.7935C183.384 76.7935 182.442 77.1223 181.665 77.7795C180.918 78.4069 180.379 79.1985 180.05 80.1548V94.6754H174.221V72.267H178.84L179.512 75.2249H179.692C180.379 74.2686 181.291 73.4322 182.427 72.7152C183.563 71.9981 185.028 71.6396 186.822 71.6396C187.928 71.6396 188.914 71.7891 189.781 72.0877C190.649 72.3863 191.381 72.8793 191.979 73.5667C192.577 74.2541 193.025 75.1952 193.324 76.3902C193.623 77.5554 193.772 79.0046 193.772 80.7374V94.6754H187.943ZM216.594 92.7483C215.697 93.4653 214.471 94.0777 212.917 94.5858C211.392 95.0636 209.763 95.3028 208.029 95.3028C204.411 95.3028 201.766 94.2569 200.092 92.1657C198.418 90.0441 197.581 87.1462 197.581 83.4712C197.581 79.5273 198.522 76.5694 200.406 74.5975C202.289 72.6255 204.935 71.6396 208.343 71.6396C209.479 71.6396 210.585 71.7891 211.661 72.0877C212.738 72.3863 213.694 72.8793 214.531 73.5667C215.368 74.2541 216.041 75.1801 216.549 76.3453C217.057 77.5106 217.312 78.9598 217.312 80.6926C217.312 81.32 217.267 81.9922 217.177 82.7093C217.117 83.4264 217.012 84.1731 216.863 84.9502H203.41C203.5 86.8325 203.978 88.2515 204.845 89.2078C205.742 90.164 207.177 90.6419 209.15 90.6419C210.376 90.6419 211.467 90.4626 212.424 90.1041C213.41 89.7159 214.157 89.3271 214.666 88.9388L216.594 92.7483ZM208.253 76.3005C206.729 76.3005 205.592 76.7638 204.845 77.6898C204.128 78.5862 203.694 79.7962 203.545 81.32H211.886C212.005 79.7066 211.751 78.4669 211.123 77.6002C210.525 76.7336 209.568 76.3005 208.253 76.3005ZM233.805 77.7347C232.878 77.4058 232.041 77.2417 231.294 77.2417C230.248 77.2417 229.366 77.5257 228.649 78.0932C227.961 78.631 227.497 79.3329 227.258 80.1996V94.6754H221.429V72.267H225.958L226.631 75.2249H226.81C227.318 74.1196 228.006 73.2681 228.873 72.6704C229.739 72.0726 230.756 71.774 231.922 71.774C232.699 71.774 233.581 71.9382 234.568 72.267L233.805 77.7347Z" fill="#F07900"/>
</svg>
