<svg width="70" height="89" viewBox="0 0 70 89" fill="none" xmlns="http://www.w3.org/2000/svg">
<path d="M59.9075 36.2385V25.2094C59.9075 11.3442 48.5566 0 34.6833 0C20.81 0 9.45908 11.3442 9.45908 25.2094V36.2385C3.46833 42.5409 0 50.7337 0 59.8724C0 70.9012 5.04484 80.985 13.8733 87.6028C14.5039 87.9176 15.1345 88.233 15.7651 88.233H53.6015C54.2321 88.233 54.8627 87.9176 55.4933 87.6028C64.3217 80.985 69.3666 70.9012 69.3666 59.8724C69.3666 50.7337 65.898 42.2258 59.9075 36.2385ZM15.7651 30.8815V25.2094C15.7651 14.8105 24.2783 6.30236 34.6833 6.30236C45.088 6.30236 53.6015 14.8105 53.6015 25.2094V30.8815C48.241 27.4153 41.62 25.2094 34.6833 25.2094C27.7466 25.2094 21.1253 27.4153 15.7651 30.8815ZM53.6015 57.0366C53.2859 57.0366 52.9709 57.0366 52.6558 57.0366C51.3946 57.0366 50.1334 56.091 49.5028 54.8305C48.5566 51.3639 46.0342 48.5281 43.1968 46.6374C41.62 45.6921 41.3044 43.8014 42.2506 42.2258C43.1962 40.6502 45.088 40.3351 46.6648 41.2804C50.7635 44.1165 53.917 48.213 55.4933 52.9398C56.1239 54.8305 55.1777 56.4064 53.6015 57.0366Z" fill="#F07900"/>
</svg>
